<?xml version="1.0" encoding="utf-8"?>
<!-- Generator: Adobe Illustrator 24.1.1, SVG Export Plug-In . SVG Version: 6.00 Build 0)  -->
<svg version="1.1" id="Capa_1" xmlns="http://www.w3.org/2000/svg" xmlns:xlink="http://www.w3.org/1999/xlink" x="0px" y="0px"
	 viewBox="0 0 358.1 276.5" style="enable-background:new 0 0 358.1 276.5;" xml:space="preserve">
<style type="text/css">
	.st0{fill:#FF1C00;}
	.st1{fill:#B21F1F;}
	.st2{fill:#FFFFFF;}
	.st3{fill:#4733FF;}
	.st4{clip-path:url(#SVGID_2_);}
	.st5{clip-path:url(#SVGID_4_);}
	.st6{filter:url(#Adobe_OpacityMaskFilter);}
	.st7{clip-path:url(#SVGID_6_);}
	.st8{clip-path:url(#SVGID_11_);}
	.st9{clip-path:url(#SVGID_13_);}
	.st10{clip-path:url(#SVGID_15_);}
	.st11{filter:url(#Adobe_OpacityMaskFilter_1_);}
	.st12{clip-path:url(#SVGID_17_);}
	.st13{clip-path:url(#SVGID_22_);}
	.st14{clip-path:url(#SVGID_24_);}
	.st15{clip-path:url(#SVGID_26_);}
	.st16{filter:url(#Adobe_OpacityMaskFilter_2_);}
	.st17{clip-path:url(#SVGID_28_);}
	.st18{clip-path:url(#SVGID_33_);}
	.st19{clip-path:url(#SVGID_35_);}
	.st20{clip-path:url(#SVGID_37_);}
	.st21{filter:url(#Adobe_OpacityMaskFilter_3_);}
	.st22{clip-path:url(#SVGID_39_);}
	.st23{clip-path:url(#SVGID_44_);}
	.st24{clip-path:url(#SVGID_46_);}
	.st25{clip-path:url(#SVGID_48_);}
	.st26{filter:url(#Adobe_OpacityMaskFilter_4_);}
	.st27{clip-path:url(#SVGID_50_);}
	.st28{clip-path:url(#SVGID_55_);}
	.st29{fill:#56565B;}
	.st30{clip-path:url(#SVGID_57_);}
	.st31{clip-path:url(#SVGID_59_);}
	.st32{filter:url(#Adobe_OpacityMaskFilter_5_);}
	.st33{clip-path:url(#SVGID_61_);}
	.st34{clip-path:url(#SVGID_66_);}
	.st35{clip-path:url(#SVGID_68_);}
	.st36{clip-path:url(#SVGID_70_);}
	.st37{filter:url(#Adobe_OpacityMaskFilter_6_);}
	.st38{clip-path:url(#SVGID_72_);}
	.st39{clip-path:url(#SVGID_77_);}
	.st40{clip-path:url(#SVGID_79_);}
	.st41{clip-path:url(#SVGID_81_);}
	.st42{filter:url(#Adobe_OpacityMaskFilter_7_);}
	.st43{clip-path:url(#SVGID_83_);}
	.st44{clip-path:url(#SVGID_88_);}
	.st45{clip-path:url(#SVGID_90_);}
	.st46{clip-path:url(#SVGID_92_);}
	.st47{filter:url(#Adobe_OpacityMaskFilter_8_);}
	.st48{clip-path:url(#SVGID_94_);}
	.st49{clip-path:url(#SVGID_99_);}
	.st50{fill:#303036;}
	.st51{clip-path:url(#SVGID_101_);}
	.st52{clip-path:url(#SVGID_103_);}
	.st53{filter:url(#Adobe_OpacityMaskFilter_9_);}
	.st54{clip-path:url(#SVGID_105_);}
	.st55{clip-path:url(#SVGID_110_);}
	.st56{fill:none;stroke:#A5A5A5;stroke-miterlimit:10;}
	
		.st57{fill:none;stroke:#BCBCBC;stroke-width:0.5;stroke-miterlimit:10;stroke-dasharray:2.8981,2.8981,2.8981,2.8981,2.8981,2.8981;}
	.st58{fill:none;stroke:#BCBCBC;stroke-width:0.5;stroke-miterlimit:10;stroke-dasharray:3,3,3;}
</style>
<g>
	<g>
		<defs>
			<path id="SVGID_76_" d="M289.1,1121.7"/>
		</defs>
		<clipPath id="SVGID_2_">
			<use xlink:href="#SVGID_76_"  style="overflow:visible;"/>
		</clipPath>
	</g>
</g>
<g>
	<circle class="st3" cx="33.6" cy="242.9" r="33.6"/>
	<path class="st3" d="M355.3,97.3c-1.9-10.7-5.3-20.3-10.2-28.7c-4.9-8.4-11.9-15.2-20.9-20.4c-9-5.2-20.4-7.8-34.3-7.8
		c-18.2,0-34.5,4.1-48.7,12.4c-14.2,8.3-25.9,20.2-35.2,35.8c-2.9-13.6-9.6-25-20-34.3c-10.4-9.3-25.2-13.9-44.3-13.9
		c-18.8,0-35.6,4-50.2,11.9C80,58.7,70.4,67.3,62.7,77.9V0h-5.6H4.5v153v47.3c8.3-5.7,18.3-9,29.1-9s20.8,3.3,29.1,9v-17.2
		c0,0-0.6-65.7,30.1-84.3c7.8-4.8,15.9-7.2,24.2-7.2c11,0,19.6,4.2,25.9,12.6c6.2,8.4,9.3,21.7,9.3,40V272h58.2v-90.3
		c0.1-9.2,1.9-65.9,30.2-82.9c7.7-4.7,15.7-7.1,24.1-7.1c11,0,19.6,4.2,25.8,12.6c6.2,8.4,9.3,21.7,9.3,40V272h58.2V129.9
		C358.1,118.9,357.2,108.1,355.3,97.3z"/>
	<path class="st3" d="M91.6,52.4C80,58.7,70.4,67.3,62.7,77.9v105.2c0,0-0.4-47.9,18.7-73.5l12-58.1C92.8,51.9,92.2,52.1,91.6,52.4z
		"/>
	<g>
		<defs>
			<path id="SVGID_78_" d="M186.1,54.3c-10.4-9.3-25.2-13.9-44.3-13.9c-18.8,0-35.6,4-50.2,11.9C80,58.7,70.4,67.3,62.7,77.9V44.3
				l0,0l0,9.6v146.4l0,0v-17.2c0,0-0.6-65.7,30.1-84.3c7.8-4.8,15.9-7.2,24.2-7.2c11,0,19.6,4.2,25.9,12.6"/>
		</defs>
		<clipPath id="SVGID_4_">
			<use xlink:href="#SVGID_78_"  style="overflow:visible;"/>
		</clipPath>
		<g class="st5">
			<g>
				<defs>
					<rect id="SVGID_80_" x="17.2" y="-5" width="215.8" height="250.8"/>
				</defs>
				<clipPath id="SVGID_6_">
					<use xlink:href="#SVGID_80_"  style="overflow:visible;"/>
				</clipPath>
				<g class="st7">
					<defs>
						<rect id="SVGID_82_" x="17.2" y="-5" width="215.8" height="250.8"/>
					</defs>
					<clipPath id="SVGID_7_">
						<use xlink:href="#SVGID_82_"  style="overflow:visible;"/>
					</clipPath>
					<defs>
						<filter id="Adobe_OpacityMaskFilter" filterUnits="userSpaceOnUse" x="17.1" y="-5.2" width="216" height="251.5">
							<feColorMatrix  type="matrix" values="1 0 0 0 0  0 1 0 0 0  0 0 1 0 0  0 0 0 1 0"/>
						</filter>
					</defs>
					<mask maskUnits="userSpaceOnUse" x="17.1" y="-5.2" width="216" height="251.5" id="SVGID_9_">
						<g class="st6">
							<g>
								<defs>
									<rect id="SVGID_85_" x="17.2" y="-5" width="215.8" height="250.8"/>
								</defs>
								<clipPath id="SVGID_11_" style="clip-path:url(#SVGID_7_);">
									<use xlink:href="#SVGID_85_"  style="overflow:visible;"/>
								</clipPath>
								<g class="st8">
									
										<image style="overflow:visible;" width="450" height="524" xlink:href="A97E6BCB.jpg"  transform="matrix(0.48 0 0 0.48 17.1042 -5.2413)">
									</image>
								</g>
							</g>
						</g>
					</mask>
					<g style="clip-path:url(#SVGID_7_);mask:url(#SVGID_9_);">
						
							<image style="overflow:visible;" width="450" height="524" xlink:href="A97E6BC9.jpg"  transform="matrix(0.48 0 0 0.48 17.1042 -5.2413)">
						</image>
					</g>
				</g>
			</g>
		</g>
	</g>
	<g>
		<defs>
			<path id="SVGID_87_" d="M210.4,181.7"/>
		</defs>
		<clipPath id="SVGID_13_">
			<use xlink:href="#SVGID_87_"  style="overflow:visible;"/>
		</clipPath>
	</g>
</g>
</svg>
